<mxfile host="app.diagrams.net" agent="Mozilla/5.0 (Windows NT 10.0; Win64; x64) AppleWebKit/537.36 (KHTML, like Gecko) Chrome/135.0.0.0 Safari/537.36" version="26.2.14">
  <diagram name="Page-1" id="70WbOiE8YP4O2zWPEm85">
    <mxGraphModel dx="2066" dy="1103" grid="1" gridSize="10" guides="1" tooltips="1" connect="1" arrows="1" fold="1" page="1" pageScale="1" pageWidth="850" pageHeight="1100" math="0" shadow="0">
      <root>
        <mxCell id="0" />
        <mxCell id="1" parent="0" />
        <mxCell id="qbFQSy89GUaXngxPX1NX-37" value="PaaS平台层" style="text;html=1;align=center;verticalAlign=middle;resizable=0;points=[];autosize=1;strokeColor=none;fillColor=none;fontSize=18;fontStyle=1" vertex="1" parent="1">
          <mxGeometry x="724" y="915" width="120" height="40" as="geometry" />
        </mxCell>
        <mxCell id="qbFQSy89GUaXngxPX1NX-41" value="逻辑层" style="text;html=1;align=center;verticalAlign=middle;resizable=0;points=[];autosize=1;strokeColor=none;fillColor=none;fontSize=18;fontStyle=1" vertex="1" parent="1">
          <mxGeometry x="734" y="710" width="80" height="40" as="geometry" />
        </mxCell>
        <mxCell id="qbFQSy89GUaXngxPX1NX-43" value="接入层" style="text;html=1;align=center;verticalAlign=middle;resizable=0;points=[];autosize=1;strokeColor=none;fillColor=none;fontSize=18;fontStyle=1" vertex="1" parent="1">
          <mxGeometry x="734" y="515" width="80" height="40" as="geometry" />
        </mxCell>
        <mxCell id="qbFQSy89GUaXngxPX1NX-29" value="" style="group;fontSize=15;fontStyle=0" vertex="1" connectable="0" parent="1">
          <mxGeometry x="19" y="831" width="680" height="210" as="geometry" />
        </mxCell>
        <mxCell id="qbFQSy89GUaXngxPX1NX-1" value="Node" style="rounded=1;whiteSpace=wrap;html=1;fontSize=15;fontStyle=0" vertex="1" parent="qbFQSy89GUaXngxPX1NX-29">
          <mxGeometry y="150" width="680" height="60" as="geometry" />
        </mxCell>
        <mxCell id="qbFQSy89GUaXngxPX1NX-3" value="Kubernets" style="rounded=1;whiteSpace=wrap;html=1;fontSize=15;fontStyle=0" vertex="1" parent="qbFQSy89GUaXngxPX1NX-29">
          <mxGeometry y="77" width="680" height="60" as="geometry" />
        </mxCell>
        <mxCell id="qbFQSy89GUaXngxPX1NX-4" value="Kafka&amp;amp;zookeeper" style="rounded=1;whiteSpace=wrap;html=1;fontSize=15;fontStyle=0" vertex="1" parent="qbFQSy89GUaXngxPX1NX-29">
          <mxGeometry width="120" height="60" as="geometry" />
        </mxCell>
        <mxCell id="qbFQSy89GUaXngxPX1NX-5" value="Postgresql" style="rounded=1;whiteSpace=wrap;html=1;fontSize=15;fontStyle=0" vertex="1" parent="qbFQSy89GUaXngxPX1NX-29">
          <mxGeometry x="140" width="120" height="60" as="geometry" />
        </mxCell>
        <mxCell id="qbFQSy89GUaXngxPX1NX-6" value="Redis" style="rounded=1;whiteSpace=wrap;html=1;fontSize=15;fontStyle=0" vertex="1" parent="qbFQSy89GUaXngxPX1NX-29">
          <mxGeometry x="420" width="120" height="60" as="geometry" />
        </mxCell>
        <mxCell id="qbFQSy89GUaXngxPX1NX-7" value="Prometheus Based Monitor" style="rounded=1;whiteSpace=wrap;html=1;fontSize=15;fontStyle=0" vertex="1" parent="qbFQSy89GUaXngxPX1NX-29">
          <mxGeometry x="560" width="120" height="60" as="geometry" />
        </mxCell>
        <mxCell id="qbFQSy89GUaXngxPX1NX-28" value="Ceph" style="rounded=1;whiteSpace=wrap;html=1;fontSize=15;fontStyle=0" vertex="1" parent="qbFQSy89GUaXngxPX1NX-29">
          <mxGeometry x="280" width="120" height="60" as="geometry" />
        </mxCell>
        <mxCell id="qbFQSy89GUaXngxPX1NX-30" value="" style="group;fontSize=15;fontStyle=0" vertex="1" connectable="0" parent="1">
          <mxGeometry x="19" y="663" width="680" height="140" as="geometry" />
        </mxCell>
        <mxCell id="qbFQSy89GUaXngxPX1NX-8" value="DBService Engine" style="rounded=1;whiteSpace=wrap;html=1;fontSize=15;fontStyle=0" vertex="1" parent="qbFQSy89GUaXngxPX1NX-30">
          <mxGeometry y="80" width="120" height="60" as="geometry" />
        </mxCell>
        <mxCell id="qbFQSy89GUaXngxPX1NX-9" value="Crond Engine" style="rounded=1;whiteSpace=wrap;html=1;fontSize=15;fontStyle=0" vertex="1" parent="qbFQSy89GUaXngxPX1NX-30">
          <mxGeometry x="190" y="80" width="120" height="60" as="geometry" />
        </mxCell>
        <mxCell id="qbFQSy89GUaXngxPX1NX-10" value="Notice Engine" style="rounded=1;whiteSpace=wrap;html=1;fontSize=15;fontStyle=0" vertex="1" parent="qbFQSy89GUaXngxPX1NX-30">
          <mxGeometry x="380" y="80" width="120" height="60" as="geometry" />
        </mxCell>
        <mxCell id="qbFQSy89GUaXngxPX1NX-11" value="Dipatcher Engine" style="rounded=1;whiteSpace=wrap;html=1;fontSize=15;fontStyle=0" vertex="1" parent="qbFQSy89GUaXngxPX1NX-30">
          <mxGeometry x="560" y="80" width="120" height="60" as="geometry" />
        </mxCell>
        <mxCell id="qbFQSy89GUaXngxPX1NX-12" value="Flink Engine" style="rounded=1;whiteSpace=wrap;html=1;fontSize=15;fontStyle=0" vertex="1" parent="qbFQSy89GUaXngxPX1NX-30">
          <mxGeometry x="380" width="120" height="60" as="geometry" />
        </mxCell>
        <mxCell id="qbFQSy89GUaXngxPX1NX-13" value="Celery Engine" style="rounded=1;whiteSpace=wrap;html=1;fontSize=15;fontStyle=0" vertex="1" parent="qbFQSy89GUaXngxPX1NX-30">
          <mxGeometry x="190" width="120" height="60" as="geometry" />
        </mxCell>
        <mxCell id="qbFQSy89GUaXngxPX1NX-14" value="Report Engine" style="rounded=1;whiteSpace=wrap;html=1;fontSize=15;fontStyle=0" vertex="1" parent="qbFQSy89GUaXngxPX1NX-30">
          <mxGeometry width="120" height="60" as="geometry" />
        </mxCell>
        <mxCell id="qbFQSy89GUaXngxPX1NX-27" value="" style="group;fontSize=15;fontStyle=0;backgroundOutline=1;" vertex="1" connectable="0" parent="1">
          <mxGeometry x="19" y="420" width="680" height="220" as="geometry" />
        </mxCell>
        <mxCell id="qbFQSy89GUaXngxPX1NX-15" value="Ingress Controller" style="rounded=1;whiteSpace=wrap;html=1;fontSize=15;fontStyle=0;backgroundOutline=1;" vertex="1" parent="qbFQSy89GUaXngxPX1NX-27">
          <mxGeometry width="310" height="60" as="geometry" />
        </mxCell>
        <mxCell id="qbFQSy89GUaXngxPX1NX-18" value="Squid" style="rounded=1;whiteSpace=wrap;html=1;fontSize=15;fontStyle=0;backgroundOutline=1;" vertex="1" parent="qbFQSy89GUaXngxPX1NX-27">
          <mxGeometry x="330" width="350" height="60" as="geometry" />
        </mxCell>
        <mxCell id="qbFQSy89GUaXngxPX1NX-19" value="Webapp" style="rounded=1;whiteSpace=wrap;html=1;fontSize=15;fontStyle=0;backgroundOutline=1;" vertex="1" parent="qbFQSy89GUaXngxPX1NX-27">
          <mxGeometry y="80" width="120" height="60" as="geometry" />
        </mxCell>
        <mxCell id="qbFQSy89GUaXngxPX1NX-20" value="File Server" style="rounded=1;whiteSpace=wrap;html=1;fontSize=15;fontStyle=0;backgroundOutline=1;" vertex="1" parent="qbFQSy89GUaXngxPX1NX-27">
          <mxGeometry x="190" y="80" width="120" height="60" as="geometry" />
        </mxCell>
        <mxCell id="qbFQSy89GUaXngxPX1NX-21" value="Syslog Server" style="rounded=1;whiteSpace=wrap;html=1;fontSize=15;fontStyle=0;backgroundOutline=1;" vertex="1" parent="qbFQSy89GUaXngxPX1NX-27">
          <mxGeometry y="160" width="120" height="60" as="geometry" />
        </mxCell>
        <mxCell id="qbFQSy89GUaXngxPX1NX-22" value="Request Collector" style="rounded=1;whiteSpace=wrap;html=1;fontSize=15;fontStyle=0;backgroundOutline=1;" vertex="1" parent="qbFQSy89GUaXngxPX1NX-27">
          <mxGeometry x="330" y="80" width="120" height="60" as="geometry" />
        </mxCell>
        <mxCell id="qbFQSy89GUaXngxPX1NX-23" value="Flume" style="rounded=1;whiteSpace=wrap;html=1;fontSize=15;fontStyle=0;backgroundOutline=1;" vertex="1" parent="qbFQSy89GUaXngxPX1NX-27">
          <mxGeometry x="560" y="80" width="120" height="60" as="geometry" />
        </mxCell>
        <mxCell id="qbFQSy89GUaXngxPX1NX-44" value="" style="rounded=0;whiteSpace=wrap;html=1;fillColor=#dae8fc;strokeColor=#6c8ebf;" vertex="1" parent="1">
          <mxGeometry x="709" y="410" width="20" height="240" as="geometry" />
        </mxCell>
        <mxCell id="qbFQSy89GUaXngxPX1NX-45" value="" style="rounded=0;whiteSpace=wrap;html=1;fillColor=#d5e8d4;strokeColor=#82b366;" vertex="1" parent="1">
          <mxGeometry x="709" y="650" width="20" height="170" as="geometry" />
        </mxCell>
        <mxCell id="qbFQSy89GUaXngxPX1NX-46" value="" style="rounded=0;whiteSpace=wrap;html=1;fillColor=#ffe6cc;strokeColor=#d79b00;" vertex="1" parent="1">
          <mxGeometry x="709" y="820" width="20" height="230" as="geometry" />
        </mxCell>
        <mxCell id="qbFQSy89GUaXngxPX1NX-49" value="" style="line;strokeWidth=2;html=1;fillColor=#d5e8d4;strokeColor=#82b366;" vertex="1" parent="1">
          <mxGeometry x="10" y="646" width="700" height="10" as="geometry" />
        </mxCell>
        <mxCell id="qbFQSy89GUaXngxPX1NX-51" value="" style="line;strokeWidth=2;html=1;fillColor=#ffe6cc;strokeColor=#d79b00;" vertex="1" parent="1">
          <mxGeometry x="9" y="815" width="700" height="10" as="geometry" />
        </mxCell>
        <mxCell id="qbFQSy89GUaXngxPX1NX-52" value="" style="line;strokeWidth=2;html=1;fillColor=#ffe6cc;strokeColor=#d79b00;" vertex="1" parent="1">
          <mxGeometry x="10" y="1045" width="700" height="10" as="geometry" />
        </mxCell>
        <mxCell id="qbFQSy89GUaXngxPX1NX-53" value="" style="line;strokeWidth=2;html=1;fillColor=#dae8fc;strokeColor=#6c8ebf;" vertex="1" parent="1">
          <mxGeometry x="9" y="406" width="700" height="10" as="geometry" />
        </mxCell>
        <mxCell id="qbFQSy89GUaXngxPX1NX-54" value="" style="line;strokeWidth=2;direction=south;html=1;perimeter=backbonePerimeter;points=[];outlineConnect=0;fillColor=#ffe6cc;strokeColor=#d79b00;" vertex="1" parent="1">
          <mxGeometry x="4" y="820" width="10" height="230" as="geometry" />
        </mxCell>
        <mxCell id="qbFQSy89GUaXngxPX1NX-55" value="" style="line;strokeWidth=2;direction=south;html=1;perimeter=backbonePerimeter;points=[];outlineConnect=0;fillColor=#d5e8d4;strokeColor=#82b366;" vertex="1" parent="1">
          <mxGeometry x="4" y="651" width="10" height="170" as="geometry" />
        </mxCell>
        <mxCell id="qbFQSy89GUaXngxPX1NX-56" value="" style="line;strokeWidth=2;direction=south;html=1;perimeter=backbonePerimeter;points=[];outlineConnect=0;fillColor=#dae8fc;strokeColor=#6c8ebf;" vertex="1" parent="1">
          <mxGeometry x="4" y="410" width="10" height="240" as="geometry" />
        </mxCell>
      </root>
    </mxGraphModel>
  </diagram>
</mxfile>
